<?xml version="1.0" standalone="no"?>
<!DOCTYPE svg PUBLIC "-//W3C//DTD SVG 20010904//EN"
 "http://www.w3.org/TR/2001/REC-SVG-20010904/DTD/svg10.dtd">
<svg version="1.0" xmlns="http://www.w3.org/2000/svg"
 width="353.000000pt" height="241.000000pt" viewBox="0 0 353.000000 241.000000"
 preserveAspectRatio="xMidYMid meet">
<metadata>
Created by potrace 1.16, written by Peter Selinger 2001-2019
</metadata>
<g transform="translate(0.000000,241.000000) scale(0.100000,-0.100000)"
fill="#4f6806" stroke="none">
<path d="M1190 2070 l0 -300 40 0 40 0 2 258 3 257 1068 3 1067 2 0 -1065 0
-1065 -1070 0 -1070 0 0 261 0 260 -37 -3 -38 -3 -3 -302 -2 -303 1150 0 1150
0 0 1150 0 1150 -1150 0 -1150 0 0 -300z"/>
<path d="M541 1976 c-22 -26 -31 -80 -32 -187 -1 -114 8 -147 60 -202 30 -33
90 -66 109 -60 19 7 14 41 -8 48 -29 9 -79 53 -94 84 -7 14 -16 46 -19 71 -7
49 4 175 16 186 4 4 38 -7 76 -26 67 -32 107 -35 99 -7 -3 10 -172 106 -189
107 -4 0 -12 -6 -18 -14z"/>
<path d="M930 1930 c-135 -69 -187 -117 -205 -186 -16 -62 -3 -135 33 -193
l28 -46 61 2 c112 3 214 70 244 161 18 53 8 262 -14 296 -10 14 -21 26 -25 26
-4 -1 -59 -27 -122 -60z m116 -44 c3 -19 4 -75 3 -124 -4 -78 -7 -93 -31 -124
-29 -38 -90 -71 -150 -82 -37 -7 -38 -6 -38 24 0 66 68 161 136 192 30 14 32
48 4 48 -52 0 -148 -88 -170 -156 -14 -42 -26 -43 -34 -3 -9 48 10 101 51 141
35 34 183 116 210 118 7 0 15 -16 19 -34z"/>
<path d="M216 1623 c-9 -37 -41 -183 -71 -323 -31 -140 -69 -315 -85 -389 -17
-73 -30 -138 -30 -142 0 -5 33 -9 74 -9 l74 0 13 78 14 77 107 3 106 3 14 -78
14 -78 77 -3 c42 -2 77 -2 77 0 0 2 -18 86 -40 188 -23 102 -61 277 -85 390
-25 113 -53 237 -62 275 l-18 70 -81 3 -82 3 -16 -68z m139 -355 c19 -103 35
-196 35 -208 0 -18 -6 -20 -80 -20 -44 0 -80 4 -80 9 0 15 71 396 77 411 8 21
8 18 48 -192z"/>
<path d="M1782 1669 c-54 -27 -83 -80 -90 -166 -5 -61 -6 -63 -32 -63 -29 0
-40 -15 -40 -55 0 -41 11 -55 41 -55 l29 0 0 -285 0 -285 75 0 75 0 0 284 0
285 53 3 52 3 0 50 0 50 -54 3 -53 3 5 45 c5 52 27 80 67 89 26 6 28 11 32 56
1 28 1 53 -1 55 -14 13 -121 2 -159 -17z"/>
<path d="M2615 1678 c-3 -7 -4 -215 -3 -463 l3 -450 73 -3 72 -3 0 466 0 465
-70 0 c-47 0 -72 -4 -75 -12z"/>
<path d="M920 1437 c-20 -7 -43 -25 -55 -44 -27 -43 -35 -41 -35 7 l0 41 -72
-3 -73 -3 0 -335 0 -335 72 -3 71 -3 4 218 c3 198 5 221 24 253 26 44 59 62
106 56 41 -4 41 -3 54 90 3 28 2 54 -2 56 -23 13 -62 15 -94 5z"/>
<path d="M1242 1440 c-52 -12 -110 -56 -134 -103 -21 -38 -23 -58 -26 -214 -4
-210 7 -261 67 -316 49 -44 105 -60 191 -55 78 4 136 31 168 78 25 37 46 105
37 120 -3 6 -37 10 -74 10 -67 0 -67 0 -84 -35 -17 -35 -45 -50 -87 -43 -34 5
-60 46 -67 105 l-6 52 159 3 159 3 3 110 c4 130 -7 172 -55 226 -53 59 -153
82 -251 59z m129 -149 c25 -26 29 -37 29 -85 l0 -56 -80 0 c-92 0 -96 4 -85
76 13 89 80 121 136 65z"/>
<path d="M2181 1436 c-53 -18 -97 -58 -122 -111 -16 -34 -19 -66 -19 -230 0
-164 3 -196 19 -231 21 -45 67 -85 120 -103 43 -14 134 -14 186 0 51 14 109
73 125 126 19 64 11 73 -65 73 -60 0 -66 -2 -75 -24 -16 -44 -69 -67 -115 -50
-25 10 -45 58 -45 108 l0 45 158 3 157 3 0 125 c0 114 -3 129 -25 170 -36 64
-98 100 -186 105 -44 3 -85 0 -113 -9z m144 -140 c25 -25 39 -76 33 -117 -3
-23 -7 -24 -85 -27 l-83 -3 0 56 c0 49 4 60 29 86 36 36 73 37 106 5z"/>
</g>
</svg>
